<?xml version="1.0" encoding="iso-8859-1"?>
<!-- Generator: Adobe Illustrator 19.0.0, SVG Export Plug-In . SVG Version: 6.00 Build 0)  -->
<svg version="1.1" id="Capa_1" xmlns="http://www.w3.org/2000/svg" xmlns:xlink="http://www.w3.org/1999/xlink" x="0px" y="0px"
	 viewBox="0 0 211.399 211.399" style="enable-background:new 0 0 211.399 211.399;" xml:space="preserve">
<g>
	<path d="M158.033,88.955V53.194c0-6.306-3.21-14.757-7.649-19.238l-26.005-26.17C119.933,3.299,111.637,0,105.32,0H24.2
		c-7.187,0-13.167,5.414-13.167,12.601v155.599c0,7.187,5.98,12.801,13.167,12.801h59.442
		c11.056,18.209,31.076,30.399,53.891,30.399c34.738,0,62.833-28.262,62.833-63C200.366,120.961,183.033,97.577,158.033,88.955z
		 M137.533,191.399c-23.71,0-43-19.29-43-43s19.29-43,43-43s43,19.29,43,43S161.243,191.399,137.533,191.399z"/>
	<path d="M151.183,129.468l-16.269,16.269l-9.769-9.769c-3.906-3.904-10.236-3.904-14.143,0c-3.905,3.905-3.905,10.237,0,14.143
		l14.719,14.719c2.534,2.533,5.861,3.8,9.191,3.8c3.328,0,6.657-1.267,9.193-3.8l21.219-21.219c3.905-3.905,3.905-10.237,0-14.143
		C161.42,125.563,155.09,125.563,151.183,129.468z"/>
</g>
<g>
</g>
<g>
</g>
<g>
</g>
<g>
</g>
<g>
</g>
<g>
</g>
<g>
</g>
<g>
</g>
<g>
</g>
<g>
</g>
<g>
</g>
<g>
</g>
<g>
</g>
<g>
</g>
<g>
</g>
</svg>
