<?xml version="1.0" encoding="iso-8859-1"?>
<!-- Generator: Adobe Illustrator 19.0.0, SVG Export Plug-In . SVG Version: 6.00 Build 0)  -->
<svg version="1.1" id="Capa_1" xmlns="http://www.w3.org/2000/svg" xmlns:xlink="http://www.w3.org/1999/xlink" x="0px" y="0px"
	 viewBox="0 0 229.671 229.671" style="enable-background:new 0 0 229.671 229.671;" xml:space="preserve">
<g>
	<path d="M165.835,51c-13.088,0-25.678,3.946-36.409,11.412l-4.139,2.879l2.913,4.115c9.467,13.369,14.471,29.078,14.471,45.429
		c0,16.35-5.004,32.06-14.471,45.43l-2.913,4.115l4.139,2.879c10.731,7.466,23.321,11.412,36.409,11.412
		c35.199,0,63.836-28.637,63.836-63.836S201.034,51,165.835,51z M191.694,140.856h-35v-10h0.772c0.904-1,1.456-1.152,1.876-2.632
		c0.503-1.77,0.757-3.595,0.757-5.509l-0.103-2.859h-6.303v-9h5.943l-0.238-6.064c-0.001-4.995,1.43-8.479,4.252-11.288
		c2.836-2.825,6.644-4.268,11.319-4.268c5.004,0,8.93,1.285,11.672,3.864c2.83,2.664,4.161,5.995,4.067,10.278l-0.013,0.488
		l-0.81-0.009h-11.191v-0.386c0-1.338,0.017-3.197-0.846-4.051c-0.781-0.772-1.409-1.16-2.998-1.16
		c-1.292,0-2.248,0.427-3.011,1.545c-0.789,1.154-1.185,2.723-1.185,4.978l0.322,6.074h10.719v9h-10.313l0.095,2.308
		c0.001,1.83-0.346,3.888-1.061,5.597c-0.513,1.228-1.183,2.095-2.008,3.095h23.286V140.856z"/>
	<path d="M63.835,51C28.636,51,0,79.636,0,114.835s28.636,63.836,63.835,63.836s63.836-28.637,63.836-63.836S99.034,51,63.835,51z
		 M80.789,106.162l-0.508,0.694H68.694v-0.993c0-2.22-0.02-4.334-0.915-5.517c-0.903-1.19-1.694-1.768-3.341-1.768
		c-1.681,0-2.835,0.449-3.619,1.374c-0.805,0.948-1.19,2.249-1.19,3.867c0,1.542,0.428,2.746,1.286,3.68
		c0.901,0.982,2.633,1.981,5.14,2.97c4.905,1.93,8.564,4.05,10.985,6.301c2.478,2.303,3.677,5.571,3.677,9.713
		c0,3.994-1.571,7.269-4.106,9.733c-2.482,2.413-5.915,3.724-9.915,4.206v7.433h-7v-7.414c-3-0.557-6.88-2.103-9.348-4.399
		c-2.815-2.617-3.683-6.376-3.59-11.5l0.059-0.894l0.916,0.207h9.963v0.703c0,2.316,0.808,4.63,1.867,5.628
		c1.111,1.049,2.563,1.537,4.635,1.537c1.792,0,3.213-0.466,4.133-1.385c0.932-0.932,1.405-2.171,1.405-3.789
		c0-1.607-0.435-2.871-1.341-3.863c-0.941-1.032-2.633-2.024-5.008-2.95c-4.961-1.81-8.743-3.871-11.173-6.121
		c-2.528-2.339-3.871-5.647-3.871-9.829c0-3.912,0.972-7.157,3.461-9.644c2.252-2.253,5.892-3.771,8.892-4.314v-7.973h7v8.065
		c4,0.706,7.188,2.454,9.321,5.021c2.367,2.85,3.738,6.53,3.693,10.878L80.789,106.162z"/>
</g>
<g>
</g>
<g>
</g>
<g>
</g>
<g>
</g>
<g>
</g>
<g>
</g>
<g>
</g>
<g>
</g>
<g>
</g>
<g>
</g>
<g>
</g>
<g>
</g>
<g>
</g>
<g>
</g>
<g>
</g>
</svg>
