<?xml version="1.0" encoding="iso-8859-1"?>
<!-- Generator: Adobe Illustrator 19.0.0, SVG Export Plug-In . SVG Version: 6.00 Build 0)  -->
<svg version="1.1" id="Capa_1" xmlns="http://www.w3.org/2000/svg" xmlns:xlink="http://www.w3.org/1999/xlink" x="0px" y="0px"
	 viewBox="0 0 207 207" style="enable-background:new 0 0 207 207;" xml:space="preserve">
<path d="M188.833,44H149.5V12.894C149.5,5.773,144.061,0,136.94,0H20.727C13.606,0,7.5,5.773,7.5,12.894v181.213
	C7.5,201.227,13.606,207,20.727,207H136.94c7.121,0,12.56-5.773,12.56-12.894V126h39.333c6.075,0,10.667-4.925,10.667-11V55
	C199.5,48.925,194.908,44,188.833,44z M78.276,198.199c-5.223,0-9.457-4.234-9.457-9.457s4.234-9.457,9.457-9.457
	s9.457,4.234,9.457,9.457S83.499,198.199,78.276,198.199z M123.5,169h-92V26h92v18H83.833C77.758,44,72.5,48.925,72.5,55v60
	c0,6.075,5.258,11,11.333,11H123.5V169z M188.5,97h-31V73h31V97z"/>
<g>
</g>
<g>
</g>
<g>
</g>
<g>
</g>
<g>
</g>
<g>
</g>
<g>
</g>
<g>
</g>
<g>
</g>
<g>
</g>
<g>
</g>
<g>
</g>
<g>
</g>
<g>
</g>
<g>
</g>
</svg>
