<?xml version="1.0" encoding="iso-8859-1"?>
<!-- Generator: Adobe Illustrator 19.0.0, SVG Export Plug-In . SVG Version: 6.00 Build 0)  -->
<svg version="1.1" id="Capa_1" xmlns="http://www.w3.org/2000/svg" xmlns:xlink="http://www.w3.org/1999/xlink" x="0px" y="0px"
	 viewBox="0 0 219.25 219.25" style="enable-background:new 0 0 219.25 219.25;" xml:space="preserve">
<path d="M171.458,109.25H67.125V74.5c0-29.145,17.232-49.5,41.667-49.5c22.883,0,41.583,18.617,41.583,41.5
	c0,6.903,5.638,12.5,12.542,12.5s12.521-5.597,12.521-12.5c0-36.668-29.822-66.5-66.49-66.5C90.591,0,73.581,7.429,61.345,20.918
	C48.876,34.661,42.125,53.19,42.125,74.5v35.796c-7,2.474-12,9.12-12,16.954v74c0,9.941,8.392,18,18.333,18h123
	c9.941,0,17.667-8.059,17.667-18v-74C189.125,117.309,181.399,109.25,171.458,109.25z M111.458,180.333
	c-7.364,0-13.333-5.97-13.333-13.333c0-7.364,5.97-13.333,13.333-13.333c7.364,0,13.333,5.97,13.333,13.333
	C124.792,174.364,118.822,180.333,111.458,180.333z"/>
<g>
</g>
<g>
</g>
<g>
</g>
<g>
</g>
<g>
</g>
<g>
</g>
<g>
</g>
<g>
</g>
<g>
</g>
<g>
</g>
<g>
</g>
<g>
</g>
<g>
</g>
<g>
</g>
<g>
</g>
</svg>
