<svg xmlns="http://www.w3.org/2000/svg" style="width:0; height:0; visibility:hidden;">
    <symbol id="icon_archive132" viewBox="0 0 211.399 211.399">
       <g> <path d="M158.033,88.955V53.194c0-6.306-3.21-14.757-7.649-19.238l-26.005-26.17C119.933,3.299,111.637,0,105.32,0H24.2
		c-7.187,0-13.167,5.414-13.167,12.601v155.599c0,7.187,5.98,12.801,13.167,12.801h59.442
		c11.056,18.209,31.076,30.399,53.891,30.399c34.738,0,62.833-28.262,62.833-63C200.366,120.961,183.033,97.577,158.033,88.955z
		 M137.533,191.399c-23.71,0-43-19.29-43-43s19.29-43,43-43s43,19.29,43,43S161.243,191.399,137.533,191.399z"/> <path d="M151.183,129.468l-16.269,16.269l-9.769-9.769c-3.906-3.904-10.236-3.904-14.143,0c-3.905,3.905-3.905,10.237,0,14.143
		l14.719,14.719c2.534,2.533,5.861,3.8,9.191,3.8c3.328,0,6.657-1.267,9.193-3.8l21.219-21.219c3.905-3.905,3.905-10.237,0-14.143
		C161.42,125.563,155.09,125.563,151.183,129.468z"/> </g>                
    </symbol>
    <symbol id="icon_badge19" viewBox="0 0 223.34 223.34">
       <path d="M213.379,91.334c-2.997-3.704-5.829-7.202-6.891-10.473c-1.142-3.515-0.919-8.169-0.684-13.096
	c0.365-7.628,0.742-15.516-3.789-21.743c-4.578-6.29-12.585-8.46-19.648-10.375c-4.723-1.28-9.184-2.489-12.109-4.619
	c-2.865-2.085-5.358-5.917-7.998-9.975c-4.019-6.178-8.573-13.18-16.074-15.615c-1.778-0.577-3.701-0.87-5.716-0.87
	c-5.359,0-10.704,2.024-15.873,3.981c-4.685,1.774-9.109,3.45-12.927,3.45s-8.242-1.676-12.926-3.45
	c-5.169-1.957-10.513-3.981-15.873-3.981c-2.014,0-3.937,0.293-5.715,0.87C69.654,7.875,65.1,14.877,61.08,21.055
	c-2.639,4.057-5.132,7.889-7.996,9.973c-2.926,2.13-7.387,3.339-12.109,4.619c-7.064,1.915-15.071,4.085-19.648,10.375
	c-4.531,6.227-4.154,14.115-3.79,21.744c0.235,4.927,0.458,9.581-0.684,13.096c-1.062,3.27-3.893,6.769-6.891,10.472
	C5.292,97.102,0,103.641,0,111.67s5.292,14.567,9.961,20.336c2.998,3.704,5.83,7.202,6.892,10.473
	c1.142,3.515,0.919,8.168,0.684,13.095c-0.365,7.629-0.743,15.518,3.789,21.744c4.578,6.29,12.585,8.46,19.648,10.375
	c4.723,1.28,9.184,2.489,12.109,4.619c2.864,2.084,5.357,5.916,7.996,9.973c4.02,6.179,8.574,13.181,16.076,15.617
	c1.779,0.577,3.702,0.87,5.716,0.87c5.359-0.001,10.704-2.024,15.872-3.981c4.685-1.774,9.109-3.45,12.927-3.45
	c3.818,0,8.243,1.676,12.928,3.45c5.168,1.957,10.512,3.981,15.872,3.981c2.014,0,3.937-0.293,5.715-0.87
	c7.502-2.437,12.057-9.438,16.076-15.616c2.639-4.057,5.132-7.889,7.996-9.973c2.926-2.13,7.387-3.339,12.109-4.619
	c7.063-1.915,15.07-4.085,19.648-10.375c4.532-6.227,4.154-14.115,3.79-21.744c-0.235-4.927-0.458-9.581,0.684-13.096
	c1.062-3.27,3.893-6.768,6.891-10.472c4.669-5.769,9.961-12.308,9.961-20.337S218.048,97.103,213.379,91.334z M76.337,138.67H64.124
	l-19.787-32.745v32.745h-12v-54h11.876l19.124,32.603V84.67h13V138.67z M121.337,94.67h-25v11h21v10h-21v13h25v10h-37v-54h37V94.67z
	 M178.169,138.67h-11.471l-8.773-31.573l-8.773,31.573H137.68l-12.726-54h12.609l6.779,32.332l8.844-32.332h9.44l8.916,32.355
	l6.742-32.355h12.574L178.169,138.67z"/>                
    </symbol>
    <symbol id="icon_best3" viewBox="0 0 215.777 215.777">
       <path d="M198.333,164.99l-17.387-17.388c0.996-0.787,1.905-1.701,2.69-2.779c3.987-5.478,3.017-12.68,2.16-19.033
	c-0.541-4.014-1.101-8.163-0.249-10.785c0.784-2.415,3.587-5.327,6.299-8.144c4.536-4.713,9.677-10.054,9.677-17.098
	s-5.141-12.386-9.677-17.098c-2.711-2.816-5.515-5.729-6.298-8.143c-0.853-2.623-0.293-6.773,0.248-10.787
	c0.856-6.354,1.827-13.555-2.159-19.032c-4.024-5.529-11.215-6.828-17.559-7.973c-3.951-0.714-8.037-1.451-10.213-3.035
	c-2.125-1.546-4.062-5.169-5.934-8.673c-3.062-5.726-6.53-12.215-13.119-14.354C135.445,0.226,133.982,0,132.464,0
	c-4.885,0-9.621,2.278-14.201,4.48c-3.706,1.783-7.538,3.626-10.397,3.626c-2.86,0-6.691-1.843-10.397-3.626
	C92.888,2.278,88.153,0,83.267,0c-1.518,0-2.98,0.226-4.348,0.669C72.331,2.809,68.861,9.298,65.8,15.024
	c-1.872,3.503-3.809,7.125-5.933,8.671c-2.176,1.584-6.262,2.321-10.213,3.035c-6.344,1.145-13.534,2.443-17.56,7.974
	c-3.986,5.478-3.016,12.679-2.159,19.031c0.541,4.014,1.101,8.164,0.248,10.787c-0.783,2.414-3.587,5.327-6.298,8.144
	c-4.536,4.713-9.677,10.054-9.677,17.098c0,7.043,5.141,12.384,9.676,17.096c2.712,2.817,5.516,5.73,6.299,8.145
	c0.853,2.623,0.293,6.773-0.248,10.786c-0.856,6.354-1.827,13.555,2.159,19.032c0.792,1.089,1.71,2.008,2.717,2.8L17.444,164.99
	c-4.675,4.676-3.81,8.895-3.22,10.491c0.589,1.597,2.67,5.367,9.261,5.887l17.144,1.354c3.045,0.241,5.926,3.122,6.166,6.166
	l1.354,17.145c0.567,7.192,5,9.745,8.623,9.745h0.001c1.847,0,4.691-0.643,7.754-3.705l40.059-40.058
	c1.178-0.363,2.29-0.594,3.28-0.594c1.009,0,2.143,0.238,3.345,0.613l40.039,40.039c3.062,3.063,5.906,3.705,7.754,3.705
	c3.623,0,8.056-2.552,8.624-9.745l1.354-17.144c0.241-3.045,3.122-5.926,6.165-6.167l17.146-1.354
	c6.591-0.52,8.672-4.29,9.261-5.887C202.143,173.885,203.008,169.666,198.333,164.99z M124.585,99.641l10.221,31.378l-26.759-19.481
	l-26.759,19.422L91.51,99.651L64.751,80.357h33.076l10.221-31.457l10.221,31.457h33.076L124.585,99.641z"/>                
    </symbol>
    <symbol id="icon_birthday52" viewBox="0 0 223.065 223.065">
       <g> <path d="M192.984,64.065h-11.716c12.324-15.493,11.331-38.17-2.993-52.496C170.814,4.108,160.894,0,150.343,0
		c-10.55,0-20.47,4.108-27.931,11.569c-3.623,3.624-7.292,8.722-10.548,14.475c-3.256-5.75-6.923-10.845-10.546-14.468
		c-7.461-7.46-17.38-11.563-27.931-11.563s-20.47,4.123-27.931,11.583c-14.308,14.309-15.314,36.974-3.035,52.469H30.748
		c-11.533,0-21.215,9.35-21.215,20.883v0.234c0,11.533,9.682,20.883,21.215,20.883h162.236c11.533,0,20.549-9.35,20.549-20.883
		v-0.234C213.533,73.415,204.517,64.065,192.984,64.065z M128.877,48.448c3.343-8.831,8.156-16.145,11.213-19.201
		c2.738-2.738,6.38-4.247,10.253-4.247c3.874,0,7.516,1.509,10.254,4.247c5.653,5.653,5.653,14.854,0,20.507
		c-6.261,6.26-22.769,14.202-32.395,14.202c-1.054,0-1.739-0.103-2.142-0.194C125.615,61.889,125.788,56.609,128.877,48.448z
		 M63.135,49.809c-5.653-5.653-5.653-14.908,0-20.562C65.874,26.509,69.515,25,73.388,25s7.515,1.522,10.253,4.261
		c3.057,3.057,7.87,10.384,11.213,19.215c3.091,8.161,3.264,13.468,2.817,15.341c-0.402,0.092-1.087,0.249-2.14,0.249
		c-0.001,0-0.001,0-0.002,0C85.903,64.065,69.395,56.068,63.135,49.809z"/> <path d="M23.533,211.065c0,6.617,5.716,12,12.333,12h152c6.617,0,11.667-5.383,11.667-12v-83h-176V211.065z"/> </g>                
    </symbol>
    <symbol id="icon_credit-card27" viewBox="0 0 229 229">
       <path d="M218.333,55.5H187V41.396c0-7.661-6.046-13.896-13.707-13.896H13.847C6.186,27.5,0,33.734,0,41.396V161.71
	c0,7.661,6.186,13.79,13.847,13.79h56.042l-3.699,15.494c-0.641,2.671-0.112,5.365,1.449,7.345c1.571,1.992,4.063,3.161,6.835,3.161
	h38.192c2.773,0,5.265-1.143,6.836-3.136c1.562-1.98,2.09-4.7,1.448-7.37l-3.699-15.494h56.042c7.661,0,13.707-6.129,13.707-13.79
	V130.5h31.333c6.075,0,10.667-4.925,10.667-11v-53C229,60.425,224.408,55.5,218.333,55.5z M165,139.5H22v-92h143v8h-39.667
	c-6.075,0-11.333,4.925-11.333,11v53c0,6.075,5.258,11,11.333,11H165V139.5z M218,103.5h-28v-21h28V103.5z"/>                
    </symbol>
    <symbol id="icon_currency42" viewBox="0 0 225 225">
       <path d="M225,66c0-8.837-7.163-16-16-16H16C7.163,50,0,57.163,0,66v93c0,8.837,7.163,16,16,16h193c8.837,0,16-7.163,16-16V66z
	 M39.128,155c-0.201,0-0.408-0.754-0.643-0.988l-19.652-19.785c-0.615-0.615-1.833-1.194-1.833-1.538V93.263
	c0-0.344,1.218-0.662,1.834-1.277L38.4,72.467C38.635,72.231,38.927,72,39.128,72h32.095C60.898,82.602,54.52,97.067,54.52,113
	c0,16.44,6.788,31.317,17.699,42H39.128z M129.388,105.184L129.022,106H118v-0.761c0-1.867-0.419-3.246-1.087-4.096
	c-0.631-0.802-1.58-1.175-2.638-1.175c-1.06,0-1.761,0.293-2.227,0.896c-0.524,0.679-0.76,1.542-0.76,2.642
	c0,1.104,0.275,1.957,0.829,2.609c0.603,0.711,1.808,1.468,3.592,2.254c4.532,1.934,7.919,3.91,10.088,5.87
	c2.301,2.079,3.43,5.055,3.43,8.847c0,3.606-1.405,6.56-3.698,8.78c-2.08,2.015-4.528,3.281-8.528,3.771V142h-6v-6.389
	c-4-0.497-6.513-1.84-8.926-4.037c-2.669-2.426-4.007-5.97-3.925-10.572l0.046-0.181L98.69,120H109v0.805
	c0,2.112,0.807,3.617,1.655,4.473c0.858,0.868,2.249,1.289,3.649,1.289c1.104,0,1.938-0.29,2.463-0.886
	c0.556-0.632,0.845-1.462,0.845-2.538c0-1.274-0.284-2.25-0.853-2.901c-0.633-0.724-1.835-1.471-3.56-2.219
	c-4.602-1.832-8.056-3.743-10.201-5.669c-2.272-2.04-3.468-5.037-3.468-8.906c0-3.512,0.953-6.453,3.334-8.74
	c2.167-2.081,5.137-3.372,8.137-3.845V85h7v6.022c3,0.635,6.102,2.108,8.104,4.436c2.171,2.521,3.265,5.733,3.204,9.6
	L129.388,105.184z M210,133.442c0,0.197-0.151,0.545-0.393,0.787l-19.4,19.781c-0.235,0.235-0.361,0.99-0.562,0.99h-35.197
	c10.911-10.683,17.699-25.56,17.699-42c0-15.933-6.379-30.398-16.704-41h34.203c0.201,0,0.325,0.23,0.56,0.464l19.402,19.392
	c0.242,0.242,0.392,0.459,0.392,0.655V133.442z"/>                
    </symbol>
    <symbol id="icon_debit-card11" viewBox="0 0 223 223">
       <g> <path d="M209.333,22h-195C6.613,22,0,28.28,0,36v29h223V36C223,28.28,217.053,22,209.333,22z"/> <path d="M0,187c0,7.72,6.613,14,14.333,14h195c7.72,0,13.667-6.28,13.667-14V88H0V187z M162,127h43v33h-43V127z M40.646,120.054
		c7.711,0,14.556,3.712,18.844,9.447c4.288-5.735,11.132-9.447,18.844-9.447c12.987,0,23.515,10.528,23.515,23.515
		c0,12.987-10.528,23.514-23.515,23.514c-7.711,0-14.556-3.712-18.844-9.447c-4.288,5.735-11.132,9.447-18.844,9.447
		c-12.987,0-23.515-10.528-23.515-23.514C17.131,130.582,27.659,120.054,40.646,120.054z"/> </g>                
    </symbol>
    <symbol id="icon_discount12" viewBox="0 0 206 206">
       <g> <path d="M130.765,106.671c-4.179,0-7.655,1.416-10.049,4.097c-2.147,2.402-3.33,5.668-3.33,9.198
		c0,6.483,4.234,13.462,13.528,13.462c4.18,0,7.655-1.416,10.049-4.097c2.147-2.402,3.329-5.669,3.329-9.198
		C144.292,113.649,140.059,106.671,130.765,106.671z"/> <path d="M181.333,0h-155C17.389,0,9.5,7.327,9.5,16v174c0,7.381,2.422,16,8.782,16c5.357,0,14-8.122,14.927-9.017l7.147-6.744
		c1.167-1.128,2.763-1.749,4.457-1.749c1.693,0,3.279,0.621,4.447,1.749l6.952,6.713C60.752,201.338,68.646,206,74.33,206
		c5.686,0,13.578-4.662,18.117-9.048l6.95-6.713c1.167-1.128,2.743-1.749,4.437-1.749c1.693,0,3.269,0.621,4.437,1.749l6.947,6.713
		c4.539,4.386,12.431,9.048,18.115,9.048c5.686,0,13.577-4.662,18.115-9.048l6.949-6.713c1.167-1.128,2.742-1.749,4.437-1.749
		c1.693,0,3.269,0.621,4.437,1.749l6.947,6.713c3.497,3.379,9.864,9.048,14.333,9.048c5.233,0,7.949-5.683,7.949-16V16
		C196.5,7.028,190.024,0,181.333,0z M57.974,43.706c4.719-5.143,11.395-7.861,19.307-7.861c17.004,0,25.902,12.608,25.902,25.062
		c0,6.54-2.313,12.65-6.514,17.206c-4.739,5.139-11.443,7.856-19.388,7.856c-16.929,0-25.787-12.608-25.787-25.062
		C51.494,54.37,53.795,48.261,57.974,43.706z M72.008,135H55.476l80.849-89.663l16.426-0.414L72.008,135z M149.784,137.002
		c-4.648,5.042-11.225,7.707-19.019,7.707c-16.608,0-25.296-12.368-25.296-24.585c0-6.413,2.258-12.405,6.357-16.873
		c4.629-5.045,11.178-7.711,18.939-7.711c16.681,0,25.408,12.368,25.408,24.585C156.173,126.539,153.904,132.533,149.784,137.002z"/> <path d="M77.433,74.163c4.192,0,7.677-1.413,10.077-4.085c2.148-2.393,3.332-5.647,3.332-9.162c0-6.462-4.243-13.417-13.561-13.417
		c-9.5,0-13.753,6.654-13.753,13.249C63.528,67.209,67.88,74.163,77.433,74.163z"/> </g>                
    </symbol>
    <symbol id="icon_dollar23" viewBox="0 0 229.671 229.671">
       <g> <path d="M165.835,51c-13.088,0-25.678,3.946-36.409,11.412l-4.139,2.879l2.913,4.115c9.467,13.369,14.471,29.078,14.471,45.429
		c0,16.35-5.004,32.06-14.471,45.43l-2.913,4.115l4.139,2.879c10.731,7.466,23.321,11.412,36.409,11.412
		c35.199,0,63.836-28.637,63.836-63.836S201.034,51,165.835,51z M191.694,140.856h-35v-10h0.772c0.904-1,1.456-1.152,1.876-2.632
		c0.503-1.77,0.757-3.595,0.757-5.509l-0.103-2.859h-6.303v-9h5.943l-0.238-6.064c-0.001-4.995,1.43-8.479,4.252-11.288
		c2.836-2.825,6.644-4.268,11.319-4.268c5.004,0,8.93,1.285,11.672,3.864c2.83,2.664,4.161,5.995,4.067,10.278l-0.013,0.488
		l-0.81-0.009h-11.191v-0.386c0-1.338,0.017-3.197-0.846-4.051c-0.781-0.772-1.409-1.16-2.998-1.16
		c-1.292,0-2.248,0.427-3.011,1.545c-0.789,1.154-1.185,2.723-1.185,4.978l0.322,6.074h10.719v9h-10.313l0.095,2.308
		c0.001,1.83-0.346,3.888-1.061,5.597c-0.513,1.228-1.183,2.095-2.008,3.095h23.286V140.856z"/> <path d="M63.835,51C28.636,51,0,79.636,0,114.835s28.636,63.836,63.835,63.836s63.836-28.637,63.836-63.836S99.034,51,63.835,51z
		 M80.789,106.162l-0.508,0.694H68.694v-0.993c0-2.22-0.02-4.334-0.915-5.517c-0.903-1.19-1.694-1.768-3.341-1.768
		c-1.681,0-2.835,0.449-3.619,1.374c-0.805,0.948-1.19,2.249-1.19,3.867c0,1.542,0.428,2.746,1.286,3.68
		c0.901,0.982,2.633,1.981,5.14,2.97c4.905,1.93,8.564,4.05,10.985,6.301c2.478,2.303,3.677,5.571,3.677,9.713
		c0,3.994-1.571,7.269-4.106,9.733c-2.482,2.413-5.915,3.724-9.915,4.206v7.433h-7v-7.414c-3-0.557-6.88-2.103-9.348-4.399
		c-2.815-2.617-3.683-6.376-3.59-11.5l0.059-0.894l0.916,0.207h9.963v0.703c0,2.316,0.808,4.63,1.867,5.628
		c1.111,1.049,2.563,1.537,4.635,1.537c1.792,0,3.213-0.466,4.133-1.385c0.932-0.932,1.405-2.171,1.405-3.789
		c0-1.607-0.435-2.871-1.341-3.863c-0.941-1.032-2.633-2.024-5.008-2.95c-4.961-1.81-8.743-3.871-11.173-6.121
		c-2.528-2.339-3.871-5.647-3.871-9.829c0-3.912,0.972-7.157,3.461-9.644c2.252-2.253,5.892-3.771,8.892-4.314v-7.973h7v8.065
		c4,0.706,7.188,2.454,9.321,5.021c2.367,2.85,3.738,6.53,3.693,10.878L80.789,106.162z"/> </g>                
    </symbol>
    <symbol id="icon_down-arrow94" viewBox="0 0 203.291 203.291">
       <path d="M101.646,0C45.598,0,0,45.598,0,101.646s45.598,101.646,101.646,101.646s101.646-45.598,101.646-101.646
	S157.693,0,101.646,0z M101.644,149.376l-40.874-51.73h23.542v-44h34v44h24.209L101.644,149.376z"/>                
    </symbol>
    <symbol id="icon_favorite40" viewBox="0 0 212.045 212.045">
       <path d="M167.871,0H44.84C34.82,0,26.022,8.243,26.022,18v182c0,3.266,0.909,5.988,2.374,8.091c1.752,2.514,4.573,3.955,7.598,3.954
	c2.86,0,5.905-1.273,8.717-3.675l55.044-46.735c1.7-1.452,4.142-2.284,6.681-2.284c2.538,0,4.975,0.832,6.68,2.288l54.86,46.724
	c2.822,2.409,5.657,3.683,8.512,3.683c4.828,0,9.534-3.724,9.534-12.045V18C186.022,8.243,177.891,0,167.871,0z"/>                
    </symbol>
    <symbol id="icon_femenine25" viewBox="0 0 223.939 223.939">
       <path d="M212.454,205.653L196.745,72.287c-1.125-9.565-9.865-17.348-19.484-17.348h-3.19c-3.781-5.448-8.436-11.881-13.561-18.356
	C140.754,11.623,125.238-0.001,111.676,0C98.203,0.001,82.803,11.533,63.214,36.293c-5.22,6.598-9.95,13.152-13.75,18.646h-2.785
	c-9.619,0-18.359,7.782-19.484,17.347L11.486,205.654c-0.565,4.813,0.817,9.369,3.896,12.83c3.128,3.518,7.586,5.455,12.552,5.455
	h168.072c4.967,0,9.425-1.938,12.553-5.455C211.636,215.023,213.019,210.467,212.454,205.653z M60.94,100.885
	c-7.285,0-13.191-5.906-13.191-13.191s5.906-13.191,13.191-13.191s13.191,5.906,13.191,13.191S68.225,100.885,60.94,100.885z
	 M80.377,54.939c0.655-0.852,1.319-1.707,1.992-2.563c20.842-26.488,29.267-27.372,29.277-27.378
	c0.083,0.006,8.546,0.836,29.543,27.457c0.653,0.828,1.298,1.657,1.935,2.483H80.377z M162.999,100.885
	c-7.285,0-13.191-5.906-13.191-13.191s5.906-13.191,13.191-13.191s13.191,5.906,13.191,13.191S170.285,100.885,162.999,100.885z"/>                
    </symbol>
    <symbol id="icon_headphones66" viewBox="0 0 215.86 215.86">
       <path d="M196.924,86.203C195.817,38.482,156.555,0,108.451,0C60.648,0,21.581,38.001,20.006,85.306
	c-9.742,8.21-16.846,20.14-16.846,33.465c0,12.964,6.727,24.604,16.063,32.786c2.726,30.658,25.659,52.303,56.756,52.303h3.68
	c5.182,7.256,13.662,12,23.234,12h6.422c15.741,0,28.548-12.815,28.548-28.568c0-9.777-4.953-21.432-28.548-21.432h-6.422
	c-16.926,0-24.258,5.998-27.051,12.997c-12.725-0.04-22.502-5.655-27.761-15.195c0.099,0.001,0.2,0.009,0.3,0.009
	c10.288,0,16.9-4.982,19.984-14.808c2.426-7.729,2.251-17.552,2.251-28.926v-2.336c0-11.375,0.174-21.198-2.251-28.926
	c-2.844-9.061-8.754-13.992-17.737-14.706C57.071,48.176,80.55,29,108.409,29c27.837,0,51.283,19.146,57.745,44.911
	c-9.531,0.424-16.015,5.379-18.962,14.766c-2.426,7.728-2.575,17.551-2.575,28.926v2.336c0,11.374,0.159,21.197,2.585,28.926
	c3.084,9.825,9.946,14.808,20.234,14.808c20.482,0,45.264-20.029,45.264-44.901C212.7,105.921,206.132,94.373,196.924,86.203z"/>                
    </symbol>
    <symbol id="icon_heart393" viewBox="0 0 217.243 217.243">
       <path d="M217.144,69.331c-0.804-15.973-7.174-30.984-17.936-42.272C188.221,15.535,173.856,9.19,158.758,9.19
	c-21.959,0-37.959,12.409-46.554,19.076c-1.142,0.886-2.466,1.912-3.448,2.607c-0.778-0.593-1.758-1.386-2.613-2.079
	C98.284,22.431,81.932,9.19,58.489,9.19c-15.097,0-29.462,6.346-40.449,17.869C7.277,38.347,0.906,53.36,0.103,69.331
	c-0.798,15.912,3.023,29.753,12.393,44.878c7.257,11.717,26.627,34.521,47.104,55.453c10.459,10.691,20.121,19.773,27.939,26.264
	c12.949,10.749,18.12,12.127,21.179,12.127c7.798,0,24.318-12.893,49.104-38.321c20.298-20.824,39.597-43.657,46.932-55.526
	C211.059,104.002,218.166,89.68,217.144,69.331z"/>                
    </symbol>
    <symbol id="icon_label60" viewBox="0 0 206.236 206.236">
       <path d="M202.867,3.368c-4.492-4.49-11.771-4.49-16.264,0l-15.556,15.556c-0.722-0.181-1.449-0.336-2.187-0.432l-56.721-7.398
	c-0.989-0.129-2.034-0.194-3.106-0.194c-8.262,0-17.784,3.753-23.158,9.128L5.257,100.644C1.866,104.034,0,108.554,0,113.373
	s1.866,9.339,5.257,12.728l74.879,74.879c3.389,3.39,7.909,5.257,12.728,5.257c4.817,0,9.338-1.867,12.728-5.257l80.617-80.617
	c6.132-6.131,10.056-17.668,8.935-26.266l-7.398-56.722c-0.096-0.738-0.251-1.466-0.432-2.188l15.555-15.555
	C207.359,15.14,207.359,7.859,202.867,3.368z M160.3,69.371c-6.339,6.339-16.618,6.339-22.957,0c-6.339-6.339-6.339-16.618,0-22.957
	c3.034-3.034,6.97-4.599,10.944-4.729l-4.01,4.01c-4.491,4.491-4.491,11.772,0,16.264c2.246,2.245,5.188,3.368,8.132,3.368
	s5.886-1.123,8.132-3.368l4.494-4.494C165.146,61.761,163.578,66.092,160.3,69.371z"/>                
    </symbol>
    <symbol id="icon_money-card11" viewBox="0 0 221 221">
       <g> <path d="M163.187,102.903c-0.24,7.447-3.729,10.917-10.983,10.917c-9.317,0.001-22.306-5.882-30.319-11.694l-1.484-1.076
		l-1.634,0.829c-1.467,0.744-3.023,1.121-4.626,1.121h-6.362c-1.603,0-3.158-0.377-4.625-1.121l-1.635-0.83l-1.484,1.076
		c-8.013,5.812-21,11.695-30.32,11.695c-7.253,0.001-10.742-3.469-10.982-10.917L58.638,100H0v72v3.5v1.5
		c0,8.284,7.049,15,15.333,15h191c8.284,0,14.667-6.716,14.667-15v-1.5V172v-72h-57.721L163.187,102.903z M162,155H58v-22h104V155z"/> <path d="M221,44c0-8.284-6.382-15-14.667-15h-191C7.049,29,0,35.716,0,44v5c0,0.672,0.06,1.328,0.145,1.977
		C0.052,51.276,0,51.614,0,52v26h59.763l-0.289-3.265c-0.349-3.935,0.07-5.898,1.603-7.504c1.786-1.87,4.426-2.819,7.848-2.819
		c9.185,0,21.654,6.562,29.354,12.658l1.761,1.395l1.834-1.297c2.034-1.438,4.021-2.168,5.905-2.168h6.362
		c1.767,0,3.754,0.771,5.905,2.293l1.834,1.297l1.761-1.395c7.862-6.226,20.464-12.926,29.554-12.926
		c3.374,0,5.875,0.901,7.646,2.757c1.505,1.577,1.954,3.738,1.604,7.71L162.155,78H221V52c0-0.386-0.052-0.724-0.145-1.023
		C220.94,50.328,221,49.672,221,49V44z"/> </g>                
    </symbol>
    <symbol id="icon_money515" viewBox="0 0 223 223">
       <g> <path d="M223,94.5c0-6.075-4.925-11-11-11h-63c-6.075,0-11,4.925-11,11v33c0,6.075,4.925,11,11,11h63c6.075,0,11-4.925,11-11V94.5z
		 M169.515,123.967c-7.082,0-12.823-5.741-12.823-12.823c0-7.082,5.741-12.823,12.823-12.823c7.082,0,12.823,5.741,12.823,12.823
		C182.338,118.225,176.597,123.967,169.515,123.967z"/> <path d="M123.509,68.5H205v-33c0-8.271-6.395-15-14.667-15h-175C7.062,20.5,0,27.229,0,35.5v152c0,8.271,7.062,15,15.333,15h175
		c8.271,0,14.667-6.729,14.667-15v-34h-81.342L123.509,68.5z"/> </g>                
    </symbol>
    <symbol id="icon_payment-method5" viewBox="0 0 207 207">
       <path d="M188.833,44H149.5V12.894C149.5,5.773,144.061,0,136.94,0H20.727C13.606,0,7.5,5.773,7.5,12.894v181.213
	C7.5,201.227,13.606,207,20.727,207H136.94c7.121,0,12.56-5.773,12.56-12.894V126h39.333c6.075,0,10.667-4.925,10.667-11V55
	C199.5,48.925,194.908,44,188.833,44z M78.276,198.199c-5.223,0-9.457-4.234-9.457-9.457s4.234-9.457,9.457-9.457
	s9.457,4.234,9.457,9.457S83.499,198.199,78.276,198.199z M123.5,169h-92V26h92v18H83.833C77.758,44,72.5,48.925,72.5,55v60
	c0,6.075,5.258,11,11.333,11H123.5V169z M188.5,97h-31V73h31V97z"/>                
    </symbol>
    <symbol id="icon_receipt13" viewBox="0 0 219 219">
       <path d="M195.051,0c-4.749,0-11.726,6.327-14.557,9.063l-6.828,6.697c-1.167,1.128-2.715,1.749-4.399,1.749
	c-1.685,0-3.243-0.621-4.407-1.745l-6.931-6.717C153.275,4.552,145.564,0,139.823,0c-5.743,0-13.457,4.552-18.11,9.048l-6.946,6.713
	c-1.167,1.128-2.742,1.749-4.435,1.749s-3.268-0.621-4.435-1.749l-6.948-6.713C94.409,4.661,86.517,0,80.833,0
	S67.257,4.661,62.717,9.048l-6.946,6.713c-1.168,1.128-2.743,1.749-4.437,1.749c-1.693,0-3.269-0.621-4.437-1.749l-6.947-6.713
	C39.566,8.679,30.355,0,24.782,0C18.422,0,16,8.619,16,16v187c0,7.381,2.422,16,8.782,16c5.357,0,14-8.122,14.943-9.032l7.069-6.729
	c1.167-1.128,2.769-1.749,4.473-1.749c1.703,0,3.295,0.621,4.466,1.753l6.964,6.709C67.236,214.338,75.133,219,80.823,219
	c5.688,0,13.582-4.662,18.12-9.047l6.952-6.714c1.167-1.128,2.743-1.749,4.437-1.749s3.27,0.621,4.438,1.749l6.947,6.713
	c4.539,4.386,12.431,9.048,18.116,9.048s13.577-4.662,18.116-9.048l6.948-6.713c1.167-1.128,2.742-1.749,4.437-1.749
	c1.693,0,3.269,0.621,4.436,1.749l6.948,6.713c3.497,3.379,9.864,9.048,14.333,9.048c5.233,0,7.949-5.683,7.949-16V16
	C203,5.683,200.285,0,195.051,0z M162,164.5h-46v-19h46V164.5z M162,118.5H58v-18h104V118.5z M162,73.5H58v-19h104V73.5z"/>                
    </symbol>
    <symbol id="icon_shipping5" viewBox="0 0 226.167 226.167">
       <path d="M212.389,45.084h-32.222v24h-67v-24H81.312c-7.745,0-14.145,5.934-14.145,13.509v12.491H12.5c-6.903,0-12.5,5.597-12.5,12.5
	s5.597,12.5,12.5,12.5h54.667v10H32.5c-6.903,0-12.5,5.597-12.5,12.5s5.597,12.5,12.5,12.5h34.667v10H52.5
	c-6.903,0-12.5,5.597-12.5,12.5s5.597,12.5,12.5,12.5h14.667v1.491c0,7.575,6.399,13.509,14.145,13.509h131.077
	c7.913,0,13.778-5.934,13.778-13.509V58.592C226.167,51.017,220.302,45.084,212.389,45.084z M159.167,124.084v37h-26v-37H119.74
	l26.667-30.07l26.666,30.07H159.167z"/>                
    </symbol>
    <symbol id="icon_shopper92" viewBox="0 0 224 224">
       <path d="M203.451,82.637h-3.588l-68.531-71.002c-5.148-5.334-12.042-8.271-19.411-8.271c-7.369,0.001-14.263,2.938-19.41,8.273
	l-68.505,71h-2.792C9.682,82.637,0,91.986,0,103.52v0.234c0,10.085,7.316,18.5,16.822,20.454l13.689,82.434
	c1.295,7.848,8.654,13.995,16.646,13.995H177.51c7.991,0,15.266-6.147,16.563-13.995l13.439-82.434
	c9.506-1.954,16.489-10.369,16.489-20.454v-0.234C224,91.986,214.984,82.637,203.451,82.637z M110.502,28.996
	c0.81-0.837,2.031-0.841,2.843,0l51.774,53.641H58.747L110.502,28.996z M173,143.637H52v-19h121V143.637z"/>                
    </symbol>
    <symbol id="icon_star232" viewBox="0 0 196 196">
       <path d="M170.119,37.524L140.564,7.836C136.118,3.349,127.705,0,121.389,0H31.631C24.444,0,18,5.515,18,12.701v170.598
	C18,190.485,24.444,196,31.631,196h133.405c7.187,0,12.964-5.515,12.964-12.701V56.763C178,50.457,174.558,42.006,170.119,37.524z
	 M127.378,142.695l-29.044-21.102l-29.044,21.102l11.094-34.368L51.338,87h35.901l11.094-34.144L109.427,87h35.901l-29.044,21.327
	L127.378,142.695z"/>                
    </symbol>
    <symbol id="icon_store22" viewBox="0 0 226 226">
       <g> <path d="M48.287,130.691c-2.873,0-5.199,1.019-6.781,3.115c-1.581,2.098-2.506,4.861-2.506,8.448v8.548
		c0,3.654,0.928,6.442,2.511,8.525c1.625,2.139,3.779,3.135,6.619,3.135c2.893,0,4.969-1.026,6.593-3.139
		c1.609-2.092,2.278-4.88,2.278-8.521v-8.548c0-3.593-0.626-6.348-2.238-8.42C53.092,131.69,51.142,130.691,48.287,130.691z"/> <path d="M95.091,130.779H86v14h9.091c2.279,0,4.046-0.592,5.252-1.866c1.153-1.218,1.763-2.868,1.763-4.875
		c0-2.056-0.608-3.863-1.759-5.125C99.104,131.553,97.287,130.779,95.091,130.779z"/> <path d="M208.333,72.779h-15.157c-5.966-6.013-13.977-13.854-22.72-21.762c-14.005-12.669-24.688-20.835-33.02-26.066
		C135.01,13.689,124.978,5.221,113,5.221c-12.012,0-22.07,8.517-24.459,19.828c-8.237,5.193-18.769,13.245-32.535,25.668
		C47.078,58.773,38.915,66.76,32.94,72.779H18.333C8.392,72.779,0,80.838,0,90.779v112c0,9.941,8.392,18,18.333,18h190
		c9.941,0,17.667-8.059,17.667-18v-112C226,80.838,218.274,72.779,208.333,72.779z M69,150.761c0,5.868-1.853,10.919-5.817,15.013
		c-3.777,3.899-8.949,5.96-15.097,5.96c-6.118,0-11.266-2.006-15.065-5.963c-3.92-4.084-6.022-9.135-6.022-15.01v-8.467
		c0-5.853,2.138-10.896,6.046-14.991c3.734-3.913,9.003-5.981,15.103-5.981c6.202,0,11.181,2.011,15.022,5.977
		c3.943,4.07,5.829,9.116,5.829,14.996V150.761z M108.517,149.53c-3.237,2.855-7.755,4.249-13.427,4.249H86v17H75v-49h20.091
		c5.593,0,10.111,1.55,13.43,4.5c3.311,2.944,4.989,6.86,4.989,11.641C113.51,142.702,111.83,146.609,108.517,149.53z M153,130.779
		h-22v10h19v9h-19v12h22v9h-34v-49h34V130.779z M68.919,72.779c1.14-1.052,2.294-2.108,3.462-3.165
		c10.568-9.558,18.617-15.926,24.652-20.173c4.334,3.607,9.901,5.78,15.967,5.78c6.094,0,11.683-2.194,16.026-5.831
		c6.078,4.269,14.202,10.695,24.884,20.371c1.112,1.007,2.212,2.015,3.299,3.019H68.919z M198,170.779h-10.477L170,141.519v29.26
		h-12v-49h11.47L187,151.93v-30.151h11V170.779z"/> </g>                
    </symbol>
    <symbol id="icon_store23" viewBox="0 0 216.741 216.741">
       <path d="M216.741,73.097c0-3.674-0.744-7.157-2.215-10.279c-0.065-0.242-0.073-0.485-0.151-0.727l-14.902-46.437
	c-2.41-7.449-10.223-13.284-17.814-13.284H35.416c-7.592,0-15.427,5.835-17.838,13.294L2.66,62.083
	c-0.08,0.246-0.13,0.492-0.196,0.738C0.993,65.942,0,69.424,0,73.097c0,9.452,5.204,17.65,13.204,21.63v101.965
	c0,9.913,8.272,17.678,18.405,17.678h153.855c10.134,0,17.739-7.765,17.739-17.678V94.728
	C211.204,90.747,216.741,82.549,216.741,73.097z M145.204,184.371v-54c0-7.18-5.487-13-12.667-13h-47c-7.18,0-13.333,5.82-13.333,13
	v54h-29V87.834c1-0.891,1.478-1.831,2.037-2.814c4.165,7.322,12.118,12.274,21.127,12.274c9.009,0,16.92-4.952,21.085-12.274
	c4.165,7.322,12.055,12.274,21.064,12.274c9.009,0,16.889-4.953,21.054-12.275c4.165,7.322,12.039,12.275,21.049,12.275
	c9.009,0,16.714-4.953,20.879-12.275c0.559,0.983,1.706,1.923,1.706,2.814v96.537H145.204z"/>                
    </symbol>
    <symbol id="icon_supermarket96" viewBox="0 0 223.789 223.789">
       <g> <path d="M206.67,63.96L62.635,36.525L58.46,14.607C57.24,8.182,51.58,3.519,45.001,3.519H12.5C5.597,3.519,0,9.116,0,16.019
		s5.597,12.5,12.5,12.5h23.161l4.641,24.364c0.027,0.195,15.359,90.667,15.359,90.667c1.774,10.46,11.841,18.97,22.439,18.97
		h117.062c10.715,0,20.474-8.664,21.753-19.313l6.73-56.03C224.938,76.404,217.323,65.99,206.67,63.96z"/> <path d="M82.734,175.672c-12.295,0-22.298,10.003-22.298,22.299s10.003,22.299,22.298,22.299c12.296,0,22.299-10.003,22.299-22.299
		S95.03,175.672,82.734,175.672z"/> <path d="M180.887,175.672c-12.296,0-22.299,10.003-22.299,22.299s10.003,22.299,22.299,22.299s22.299-10.003,22.299-22.299
		S193.183,175.672,180.887,175.672z"/> </g>                
    </symbol>
    <symbol id="icon_supermarket97" viewBox="0 0 224.455 224.455">
       <g> <path d="M197.937,106.059l5.701-16.352c1.484-4.261,1.008-8.574-1.308-11.833c-2.323-3.271-6.258-5.146-10.794-5.146h-11.608
		c-0.046-0.063-0.083-0.129-0.13-0.191l-35.253-46.534c0.001-0.058,0.009-0.113,0.009-0.17c0-9.404-7.651-17.056-17.056-17.056
		s-17.056,7.651-17.056,17.056c0,8.87,6.807,16.173,15.471,16.976l22.666,29.919H55.909l22.726-29.998
		c8.364-1.087,14.85-8.241,14.85-16.897c0-9.404-7.651-17.056-17.056-17.056c-9.405,0-17.057,7.651-17.057,17.056
		c0,0.292,0.029,0.577,0.044,0.865L24.69,72.536c-0.047,0.062-0.085,0.129-0.13,0.191H12.952c-4.536,0-8.47,1.876-10.794,5.146
		c-2.315,3.259-2.793,7.572-1.309,11.835l29.699,85.18c2.705,7.761,11.2,13.84,19.341,13.84h64.667
		c10.73,16.223,29.128,26.951,49.992,26.951c33.032,0,59.906-26.874,59.906-59.906C224.455,135.092,213.92,116.828,197.937,106.059z
		 M164.548,195.678c-22.004,0-39.906-17.902-39.906-39.906s17.902-39.906,39.906-39.906s39.906,17.902,39.906,39.906
		S186.552,195.678,164.548,195.678z"/> <path d="M176.989,137.533l-14.906,14.906l-8.785-8.786c-3.906-3.904-10.236-3.904-14.143,0c-3.905,3.905-3.905,10.237,0,14.143
		l13.735,13.735c2.453,2.453,5.718,3.804,9.192,3.804c3.477,0,6.742-1.352,9.192-3.804l19.856-19.855
		c3.905-3.905,3.905-10.237,0-14.143C187.227,133.631,180.897,133.629,176.989,137.533z"/> </g>                
    </symbol>
    <symbol id="icon_tool796" viewBox="0 0 202.474 202.474">
       <path d="M192.372,146.64l-37.328-37.329c3.579-9.173,5.472-19.018,5.472-29.16c0-21.408-8.338-41.536-23.477-56.675
	C121.901,8.337,101.773,0,80.364,0S38.827,8.337,23.689,23.476c-31.25,31.251-31.25,82.1,0,113.35
	c15.138,15.139,35.266,23.477,56.675,23.477c9.768,0,19.261-1.754,28.143-5.079l37.64,37.64c6.197,6.198,14.415,9.611,23.141,9.611
	h0.001c8.736,0,16.968-3.42,23.179-9.63l0.294-0.295C205.524,179.786,205.353,159.62,192.372,146.64z M44.195,116.319
	c-19.943-19.943-19.943-52.394,0-72.338C53.856,34.32,66.701,29,80.364,29s26.508,5.32,36.169,14.981s14.982,22.507,14.982,36.169
	c0,13.663-5.321,26.508-14.982,36.169s-22.506,14.982-36.169,14.982S53.856,125.98,44.195,116.319z"/>                
    </symbol>
    <symbol id="icon_tool797" viewBox="0 0 219.25 219.25">
       <path d="M171.458,109.25H67.125V74.5c0-29.145,17.232-49.5,41.667-49.5c22.883,0,41.583,18.617,41.583,41.5
	c0,6.903,5.638,12.5,12.542,12.5s12.521-5.597,12.521-12.5c0-36.668-29.822-66.5-66.49-66.5C90.591,0,73.581,7.429,61.345,20.918
	C48.876,34.661,42.125,53.19,42.125,74.5v35.796c-7,2.474-12,9.12-12,16.954v74c0,9.941,8.392,18,18.333,18h123
	c9.941,0,17.667-8.059,17.667-18v-74C189.125,117.309,181.399,109.25,171.458,109.25z M111.458,180.333
	c-7.364,0-13.333-5.97-13.333-13.333c0-7.364,5.97-13.333,13.333-13.333c7.364,0,13.333,5.97,13.333,13.333
	C124.792,174.364,118.822,180.333,111.458,180.333z"/>                
    </symbol>
    <symbol id="icon_tool798" viewBox="0 0 219 219">
       <path d="M176,109.719V74.5c0-21.31-6.423-39.839-18.892-53.582C144.872,7.429,128.106,0,109.75,0S74.42,7.429,62.183,20.918
	C49.715,34.661,43,53.19,43,74.5v35.219c-7,2.168-13,9.077-13,17.281v74c0,9.941,8.392,18,18.333,18h123
	c9.941,0,17.667-8.059,17.667-18v-74C189,118.796,184,111.887,176,109.719z M109.083,177.333c-7.364,0-13.333-5.97-13.333-13.333
	c0-7.364,5.969-13.333,13.333-13.333s13.333,5.97,13.333,13.333C122.417,171.364,116.447,177.333,109.083,177.333z M151,109H68V74.5
	C68,45.355,85.065,25,109.5,25S151,45.355,151,74.5V109z"/>                
    </symbol>
    <symbol id="icon_transport1060" viewBox="0 0 245.667 245.667">
       <g> <path d="M242.417,135.936l-1.522-3.006c-1.394-2.607-3.151-7.172-3.887-9.969l-14.666-55.765
		c-1.417-5.385-6.711-9.446-12.341-9.446h-64c-6.054,0-10.998,4.888-11.023,10.908l-0.134,75.092H19c-10.477,0-19,8.523-19,19
		s8.523,19,19,19h12.502c-0.326,1.673-0.502,3.4-0.502,5.167c0,14.888,12.112,27,27,27s27-12.112,27-27
		c0-1.767-0.176-3.494-0.502-5.167h75.003c-0.326,1.673-0.502,3.4-0.502,5.167c0,14.888,12.112,27,27,27s27-12.112,27-27
		c0-1.767-0.176-3.494-0.502-5.167H235c6.065,0,10.667-5.01,10.667-11.167v-21C245.667,145.45,244.365,139.583,242.417,135.936z
		 M156.667,114.75v-37h46.153l8.18,37H156.667z"/> <path d="M117.667,43.75c0-6.627-5.373-12-12-12h-83c-6.627,0-12,5.373-12,12v69c0,6.627,5.373,12,12,12h83c6.627,0,12-5.373,12-12
		V43.75z M64.501,51.396l20.71,23.354H73.667v30h-19v-30H43.79L64.501,51.396z"/> </g>                
    </symbol></svg>