<?xml version="1.0" encoding="iso-8859-1"?>
<!-- Generator: Adobe Illustrator 19.0.0, SVG Export Plug-In . SVG Version: 6.00 Build 0)  -->
<svg version="1.1" id="Capa_1" xmlns="http://www.w3.org/2000/svg" xmlns:xlink="http://www.w3.org/1999/xlink" x="0px" y="0px"
	 viewBox="0 0 223.939 223.939" style="enable-background:new 0 0 223.939 223.939;" xml:space="preserve">
<path d="M212.454,205.653L196.745,72.287c-1.125-9.565-9.865-17.348-19.484-17.348h-3.19c-3.781-5.448-8.436-11.881-13.561-18.356
	C140.754,11.623,125.238-0.001,111.676,0C98.203,0.001,82.803,11.533,63.214,36.293c-5.22,6.598-9.95,13.152-13.75,18.646h-2.785
	c-9.619,0-18.359,7.782-19.484,17.347L11.486,205.654c-0.565,4.813,0.817,9.369,3.896,12.83c3.128,3.518,7.586,5.455,12.552,5.455
	h168.072c4.967,0,9.425-1.938,12.553-5.455C211.636,215.023,213.019,210.467,212.454,205.653z M60.94,100.885
	c-7.285,0-13.191-5.906-13.191-13.191s5.906-13.191,13.191-13.191s13.191,5.906,13.191,13.191S68.225,100.885,60.94,100.885z
	 M80.377,54.939c0.655-0.852,1.319-1.707,1.992-2.563c20.842-26.488,29.267-27.372,29.277-27.378
	c0.083,0.006,8.546,0.836,29.543,27.457c0.653,0.828,1.298,1.657,1.935,2.483H80.377z M162.999,100.885
	c-7.285,0-13.191-5.906-13.191-13.191s5.906-13.191,13.191-13.191s13.191,5.906,13.191,13.191S170.285,100.885,162.999,100.885z"/>
<g>
</g>
<g>
</g>
<g>
</g>
<g>
</g>
<g>
</g>
<g>
</g>
<g>
</g>
<g>
</g>
<g>
</g>
<g>
</g>
<g>
</g>
<g>
</g>
<g>
</g>
<g>
</g>
<g>
</g>
</svg>
