<?xml version="1.0" encoding="iso-8859-1"?>
<!-- Generator: Adobe Illustrator 19.0.0, SVG Export Plug-In . SVG Version: 6.00 Build 0)  -->
<svg version="1.1" id="Capa_1" xmlns="http://www.w3.org/2000/svg" xmlns:xlink="http://www.w3.org/1999/xlink" x="0px" y="0px"
	 viewBox="0 0 206.236 206.236" style="enable-background:new 0 0 206.236 206.236;" xml:space="preserve">
<path d="M202.867,3.368c-4.492-4.49-11.771-4.49-16.264,0l-15.556,15.556c-0.722-0.181-1.449-0.336-2.187-0.432l-56.721-7.398
	c-0.989-0.129-2.034-0.194-3.106-0.194c-8.262,0-17.784,3.753-23.158,9.128L5.257,100.644C1.866,104.034,0,108.554,0,113.373
	s1.866,9.339,5.257,12.728l74.879,74.879c3.389,3.39,7.909,5.257,12.728,5.257c4.817,0,9.338-1.867,12.728-5.257l80.617-80.617
	c6.132-6.131,10.056-17.668,8.935-26.266l-7.398-56.722c-0.096-0.738-0.251-1.466-0.432-2.188l15.555-15.555
	C207.359,15.14,207.359,7.859,202.867,3.368z M160.3,69.371c-6.339,6.339-16.618,6.339-22.957,0c-6.339-6.339-6.339-16.618,0-22.957
	c3.034-3.034,6.97-4.599,10.944-4.729l-4.01,4.01c-4.491,4.491-4.491,11.772,0,16.264c2.246,2.245,5.188,3.368,8.132,3.368
	s5.886-1.123,8.132-3.368l4.494-4.494C165.146,61.761,163.578,66.092,160.3,69.371z"/>
<g>
</g>
<g>
</g>
<g>
</g>
<g>
</g>
<g>
</g>
<g>
</g>
<g>
</g>
<g>
</g>
<g>
</g>
<g>
</g>
<g>
</g>
<g>
</g>
<g>
</g>
<g>
</g>
<g>
</g>
</svg>
