<?xml version="1.0" encoding="iso-8859-1"?>
<!-- Generator: Adobe Illustrator 19.0.0, SVG Export Plug-In . SVG Version: 6.00 Build 0)  -->
<svg version="1.1" id="Capa_1" xmlns="http://www.w3.org/2000/svg" xmlns:xlink="http://www.w3.org/1999/xlink" x="0px" y="0px"
	 viewBox="0 0 224 224" style="enable-background:new 0 0 224 224;" xml:space="preserve">
<path d="M203.451,82.637h-3.588l-68.531-71.002c-5.148-5.334-12.042-8.271-19.411-8.271c-7.369,0.001-14.263,2.938-19.41,8.273
	l-68.505,71h-2.792C9.682,82.637,0,91.986,0,103.52v0.234c0,10.085,7.316,18.5,16.822,20.454l13.689,82.434
	c1.295,7.848,8.654,13.995,16.646,13.995H177.51c7.991,0,15.266-6.147,16.563-13.995l13.439-82.434
	c9.506-1.954,16.489-10.369,16.489-20.454v-0.234C224,91.986,214.984,82.637,203.451,82.637z M110.502,28.996
	c0.81-0.837,2.031-0.841,2.843,0l51.774,53.641H58.747L110.502,28.996z M173,143.637H52v-19h121V143.637z"/>
<g>
</g>
<g>
</g>
<g>
</g>
<g>
</g>
<g>
</g>
<g>
</g>
<g>
</g>
<g>
</g>
<g>
</g>
<g>
</g>
<g>
</g>
<g>
</g>
<g>
</g>
<g>
</g>
<g>
</g>
</svg>
