<?xml version="1.0" encoding="iso-8859-1"?>
<!-- Generator: Adobe Illustrator 19.0.0, SVG Export Plug-In . SVG Version: 6.00 Build 0)  -->
<svg version="1.1" id="Capa_1" xmlns="http://www.w3.org/2000/svg" xmlns:xlink="http://www.w3.org/1999/xlink" x="0px" y="0px"
	 viewBox="0 0 196 196" style="enable-background:new 0 0 196 196;" xml:space="preserve">
<path d="M170.119,37.524L140.564,7.836C136.118,3.349,127.705,0,121.389,0H31.631C24.444,0,18,5.515,18,12.701v170.598
	C18,190.485,24.444,196,31.631,196h133.405c7.187,0,12.964-5.515,12.964-12.701V56.763C178,50.457,174.558,42.006,170.119,37.524z
	 M127.378,142.695l-29.044-21.102l-29.044,21.102l11.094-34.368L51.338,87h35.901l11.094-34.144L109.427,87h35.901l-29.044,21.327
	L127.378,142.695z"/>
<g>
</g>
<g>
</g>
<g>
</g>
<g>
</g>
<g>
</g>
<g>
</g>
<g>
</g>
<g>
</g>
<g>
</g>
<g>
</g>
<g>
</g>
<g>
</g>
<g>
</g>
<g>
</g>
<g>
</g>
</svg>
