<?xml version="1.0" encoding="iso-8859-1"?>
<!-- Generator: Adobe Illustrator 19.0.0, SVG Export Plug-In . SVG Version: 6.00 Build 0)  -->
<svg version="1.1" id="Capa_1" xmlns="http://www.w3.org/2000/svg" xmlns:xlink="http://www.w3.org/1999/xlink" x="0px" y="0px"
	 viewBox="0 0 245.667 245.667" style="enable-background:new 0 0 245.667 245.667;" xml:space="preserve">
<g>
	<path d="M242.417,135.936l-1.522-3.006c-1.394-2.607-3.151-7.172-3.887-9.969l-14.666-55.765
		c-1.417-5.385-6.711-9.446-12.341-9.446h-64c-6.054,0-10.998,4.888-11.023,10.908l-0.134,75.092H19c-10.477,0-19,8.523-19,19
		s8.523,19,19,19h12.502c-0.326,1.673-0.502,3.4-0.502,5.167c0,14.888,12.112,27,27,27s27-12.112,27-27
		c0-1.767-0.176-3.494-0.502-5.167h75.003c-0.326,1.673-0.502,3.4-0.502,5.167c0,14.888,12.112,27,27,27s27-12.112,27-27
		c0-1.767-0.176-3.494-0.502-5.167H235c6.065,0,10.667-5.01,10.667-11.167v-21C245.667,145.45,244.365,139.583,242.417,135.936z
		 M156.667,114.75v-37h46.153l8.18,37H156.667z"/>
	<path d="M117.667,43.75c0-6.627-5.373-12-12-12h-83c-6.627,0-12,5.373-12,12v69c0,6.627,5.373,12,12,12h83c6.627,0,12-5.373,12-12
		V43.75z M64.501,51.396l20.71,23.354H73.667v30h-19v-30H43.79L64.501,51.396z"/>
</g>
<g>
</g>
<g>
</g>
<g>
</g>
<g>
</g>
<g>
</g>
<g>
</g>
<g>
</g>
<g>
</g>
<g>
</g>
<g>
</g>
<g>
</g>
<g>
</g>
<g>
</g>
<g>
</g>
<g>
</g>
</svg>
